<mxfile host="65bd71144e" scale="10" border="0">
    <diagram id="Jf5RHwIwj3P055EiEldz" name="第 1 页">
        <mxGraphModel dx="1161" dy="657" grid="1" gridSize="10" guides="1" tooltips="1" connect="1" arrows="1" fold="1" page="1" pageScale="1" pageWidth="1169" pageHeight="1654" math="0" shadow="0">
            <root>
                <mxCell id="0"/>
                <mxCell id="1" parent="0"/>
                <mxCell id="302" value="" style="rounded=0;whiteSpace=wrap;html=1;dashed=1;strokeColor=#3333FF;strokeWidth=3;" parent="1" vertex="1">
                    <mxGeometry x="120" y="150" width="550" height="650" as="geometry"/>
                </mxCell>
                <mxCell id="300" value="&lt;div style=&quot;font-size: 19px&quot;&gt;&lt;br&gt;&lt;/div&gt;" style="rounded=0;whiteSpace=wrap;html=1;fontFamily=宋体;fontSource=https%3A%2F%2Ffonts.googleapis.com%2Fcss%3Ffamily%3D%25E5%25AE%258B%25E4%25BD%2593;fontSize=14;dashed=1;strokeColor=#1F80FF;strokeWidth=2;" parent="1" vertex="1">
                    <mxGeometry x="130" y="180" width="340" height="610" as="geometry"/>
                </mxCell>
                <mxCell id="140" value="&lt;div style=&quot;font-size: 17px&quot;&gt;&lt;font style=&quot;font-size: 17px&quot;&gt;&lt;font face=&quot;Times New Roman&quot; style=&quot;font-size: 17px&quot;&gt;PicoRV&lt;/font&gt;软核：&lt;/font&gt;&lt;/div&gt;&lt;div style=&quot;font-size: 17px&quot;&gt;&lt;font style=&quot;font-size: 17px&quot;&gt;&lt;br&gt;&lt;/font&gt;&lt;/div&gt;&lt;div style=&quot;font-size: 17px&quot;&gt;&lt;font style=&quot;font-size: 17px&quot;&gt;1、&lt;/font&gt;&lt;/div&gt;&lt;div style=&quot;font-size: 17px&quot;&gt;&lt;font style=&quot;font-size: 17px&quot;&gt;&lt;font style=&quot;font-size: 17px&quot;&gt;串口指令&lt;/font&gt;&lt;span&gt;接收&lt;/span&gt;&lt;/font&gt;&lt;/div&gt;&lt;div style=&quot;font-size: 17px&quot;&gt;&lt;span&gt;&lt;font face=&quot;Times New Roman&quot; style=&quot;font-size: 17px&quot;&gt;&amp;amp;&lt;/font&gt;&lt;/span&gt;&lt;/div&gt;&lt;div style=&quot;font-size: 17px&quot;&gt;&lt;font style=&quot;font-size: 17px&quot;&gt;&lt;font style=&quot;font-size: 17px&quot;&gt;图片切换&lt;/font&gt;&lt;span&gt;控制&lt;/span&gt;&lt;/font&gt;&lt;/div&gt;&lt;div style=&quot;font-size: 17px&quot;&gt;&lt;font style=&quot;font-size: 17px&quot;&gt;&lt;br&gt;&lt;/font&gt;&lt;/div&gt;&lt;div style=&quot;font-size: 17px&quot;&gt;&lt;font style=&quot;font-size: 17px&quot;&gt;2、&lt;/font&gt;&lt;/div&gt;&lt;div style=&quot;font-size: 17px&quot;&gt;&lt;font style=&quot;font-size: 17px&quot;&gt;售货过程&lt;span&gt;的&lt;/span&gt;&lt;span&gt;状态机&lt;/span&gt;&lt;/font&gt;&lt;/div&gt;&lt;div style=&quot;font-size: 17px&quot;&gt;&lt;font style=&quot;font-size: 17px&quot;&gt;&lt;br&gt;&lt;/font&gt;&lt;/div&gt;&lt;div style=&quot;font-size: 17px&quot;&gt;&lt;font style=&quot;font-size: 17px&quot;&gt;3、&lt;/font&gt;&lt;/div&gt;&lt;div style=&quot;font-size: 17px&quot;&gt;&lt;font style=&quot;font-size: 17px&quot;&gt;&lt;font style=&quot;font-size: 17px&quot;&gt;卷积神经网络&lt;/font&gt;&lt;span&gt;输出&lt;/span&gt;&lt;/font&gt;&lt;/div&gt;&lt;div style=&quot;font-size: 17px&quot;&gt;&lt;font style=&quot;font-size: 17px&quot;&gt;&lt;font style=&quot;font-size: 17px&quot;&gt;识别&lt;/font&gt;&lt;span&gt;类型的&lt;/span&gt;&lt;span&gt;接收&lt;/span&gt;&lt;/font&gt;&lt;/div&gt;&lt;div style=&quot;font-size: 17px&quot;&gt;&lt;font style=&quot;font-size: 17px&quot;&gt;&lt;span style=&quot;font-family: &amp;#34;times new roman&amp;#34;&quot;&gt;&amp;amp;&lt;/span&gt;&lt;span&gt;&lt;br&gt;&lt;/span&gt;&lt;/font&gt;&lt;/div&gt;&lt;font style=&quot;font-size: 17px&quot;&gt;&lt;font style=&quot;font-size: 17px&quot;&gt;识别&lt;/font&gt;类型串口发送&lt;br&gt;&lt;/font&gt;&lt;div style=&quot;font-size: 17px&quot;&gt;&lt;br&gt;&lt;/div&gt;" style="rounded=0;whiteSpace=wrap;html=1;fontFamily=宋体;fontSource=https%3A%2F%2Ffonts.googleapis.com%2Fcss%3Ffamily%3D%25E5%25AE%258B%25E4%25BD%2593;fontSize=14;dashed=1;strokeColor=#1F80FF;strokeWidth=2;" parent="1" vertex="1">
                    <mxGeometry x="480" y="275" width="180" height="430" as="geometry"/>
                </mxCell>
                <mxCell id="161" value="" style="rounded=0;whiteSpace=wrap;html=1;dashed=1;strokeColor=#3333FF;strokeWidth=3;" parent="1" vertex="1">
                    <mxGeometry x="680" y="330" width="180" height="250" as="geometry"/>
                </mxCell>
                <mxCell id="160" value="&lt;font style=&quot;font-size: 24px&quot; face=&quot;Times New Roman&quot;&gt;FPGA&lt;/font&gt;" style="text;html=1;align=center;verticalAlign=middle;resizable=0;points=[];autosize=1;strokeColor=none;fillColor=none;fontSize=16;fontFamily=宋体;fontColor=#3333FF;" parent="1" vertex="1">
                    <mxGeometry x="600" y="119.5" width="80" height="30" as="geometry"/>
                </mxCell>
                <mxCell id="162" value="&lt;span style=&quot;font-size: 24px&quot;&gt;串口屏&lt;/span&gt;" style="text;html=1;align=center;verticalAlign=middle;resizable=0;points=[];autosize=1;strokeColor=none;fillColor=none;fontSize=16;fontFamily=宋体;fontColor=#3333FF;" parent="1" vertex="1">
                    <mxGeometry x="790" y="300" width="90" height="30" as="geometry"/>
                </mxCell>
                <mxCell id="289" style="edgeStyle=none;html=1;entryX=0;entryY=0.5;entryDx=0;entryDy=0;fontFamily=Times New Roman;fontSize=12;" parent="1" source="170" target="259" edge="1">
                    <mxGeometry relative="1" as="geometry"/>
                </mxCell>
                <mxCell id="310" style="edgeStyle=none;html=1;entryX=0.251;entryY=0.003;entryDx=0;entryDy=0;fontFamily=Times New Roman;fontSize=20;fontColor=#F8CECC;strokeWidth=3;strokeColor=#CCCCCC;entryPerimeter=0;" parent="1" source="170" target="197" edge="1">
                    <mxGeometry relative="1" as="geometry">
                        <Array as="points">
                            <mxPoint x="200" y="480"/>
                            <mxPoint x="158" y="480"/>
                        </Array>
                    </mxGeometry>
                </mxCell>
                <mxCell id="170" value="&lt;span style=&quot;font-size: 17px&quot;&gt;&lt;font face=&quot;宋体&quot; data-font-src=&quot;https://fonts.googleapis.com/css?family=%E5%AE%8B%E4%BD%93&quot;&gt;灰度化&lt;br&gt;处理&lt;/font&gt;&lt;/span&gt;" style="rounded=0;whiteSpace=wrap;html=1;" parent="1" vertex="1">
                    <mxGeometry x="160" y="200" width="80" height="60" as="geometry"/>
                </mxCell>
                <mxCell id="180" style="edgeStyle=none;html=1;entryX=0.5;entryY=0;entryDx=0;entryDy=0;fontFamily=宋体;fontSource=https%3A%2F%2Ffonts.googleapis.com%2Fcss%3Ffamily%3D%25E5%25AE%258B%25E4%25BD%2593;" parent="1" source="172" target="173" edge="1">
                    <mxGeometry relative="1" as="geometry"/>
                </mxCell>
                <mxCell id="172" value="&lt;span style=&quot;font-size: 17px&quot;&gt;&lt;font face=&quot;宋体&quot; data-font-src=&quot;https://fonts.googleapis.com/css?family=%E5%AE%8B%E4%BD%93&quot;&gt;图像膨胀&lt;/font&gt;&lt;/span&gt;" style="rounded=0;whiteSpace=wrap;html=1;" parent="1" vertex="1">
                    <mxGeometry x="230" y="300" width="140" height="40" as="geometry"/>
                </mxCell>
                <mxCell id="182" style="edgeStyle=none;html=1;fontFamily=宋体;fontSource=https%3A%2F%2Ffonts.googleapis.com%2Fcss%3Ffamily%3D%25E5%25AE%258B%25E4%25BD%2593;" parent="1" source="173" edge="1">
                    <mxGeometry relative="1" as="geometry">
                        <mxPoint x="300" y="440" as="targetPoint"/>
                    </mxGeometry>
                </mxCell>
                <mxCell id="183" value="&lt;font style=&quot;font-size: 13px&quot;&gt;商品坐标 *8&lt;/font&gt;" style="edgeLabel;html=1;align=center;verticalAlign=middle;resizable=0;points=[];fontFamily=宋体;" parent="182" vertex="1" connectable="0">
                    <mxGeometry x="-0.3459" relative="1" as="geometry">
                        <mxPoint x="40" as="offset"/>
                    </mxGeometry>
                </mxCell>
                <mxCell id="173" value="&lt;span style=&quot;font-size: 17px&quot;&gt;&lt;font face=&quot;宋体&quot; data-font-src=&quot;https://fonts.googleapis.com/css?family=%E5%AE%8B%E4%BD%93&quot;&gt;连通域分割&lt;/font&gt;&lt;/span&gt;" style="rounded=0;whiteSpace=wrap;html=1;" parent="1" vertex="1">
                    <mxGeometry x="230" y="370" width="140" height="40" as="geometry"/>
                </mxCell>
                <mxCell id="281" style="edgeStyle=none;html=1;entryX=0.75;entryY=0;entryDx=0;entryDy=0;" parent="1" source="174" target="197" edge="1">
                    <mxGeometry relative="1" as="geometry">
                        <Array as="points">
                            <mxPoint x="300" y="500"/>
                            <mxPoint x="173" y="500"/>
                        </Array>
                    </mxGeometry>
                </mxCell>
                <mxCell id="174" value="&lt;font style=&quot;font-size: 17px&quot;&gt;8&lt;font face=&quot;Times New Roman&quot;&gt;-&amp;gt;&lt;/font&gt;1选择器&lt;/font&gt;" style="shape=trapezoid;perimeter=trapezoidPerimeter;whiteSpace=wrap;html=1;fixedSize=1;fontFamily=宋体;fontSource=https%3A%2F%2Ffonts.googleapis.com%2Fcss%3Ffamily%3D%25E5%25AE%258B%25E4%25BD%2593;direction=west;" parent="1" vertex="1">
                    <mxGeometry x="230" y="440" width="140" height="40" as="geometry"/>
                </mxCell>
                <mxCell id="276" style="edgeStyle=none;html=1;entryX=0;entryY=0.5;entryDx=0;entryDy=0;" parent="1" source="197" target="198" edge="1">
                    <mxGeometry relative="1" as="geometry"/>
                </mxCell>
                <mxCell id="317" style="edgeStyle=none;html=1;entryX=0;entryY=0.5;entryDx=0;entryDy=0;fontFamily=宋体;fontSource=https%3A%2F%2Ffonts.googleapis.com%2Fcss%3Ffamily%3D%25E5%25AE%258B%25E4%25BD%2593;" edge="1" parent="1" source="197" target="311">
                    <mxGeometry relative="1" as="geometry">
                        <Array as="points">
                            <mxPoint x="190" y="570"/>
                            <mxPoint x="190" y="665"/>
                        </Array>
                    </mxGeometry>
                </mxCell>
                <mxCell id="197" value="&lt;font face=&quot;宋体&quot;&gt;&lt;span style=&quot;font-size: 17px&quot;&gt;区域提取&lt;br&gt;&lt;/span&gt;&lt;/font&gt;" style="rounded=0;whiteSpace=wrap;html=1;" parent="1" vertex="1">
                    <mxGeometry x="150" y="520" width="30" height="100" as="geometry"/>
                </mxCell>
                <mxCell id="277" style="edgeStyle=none;html=1;entryX=0;entryY=0.5;entryDx=0;entryDy=0;" parent="1" source="198" target="199" edge="1">
                    <mxGeometry relative="1" as="geometry"/>
                </mxCell>
                <mxCell id="198" value="&lt;font style=&quot;font-size: 16px&quot;&gt;卷积层&lt;br&gt;1&lt;/font&gt;" style="rounded=0;whiteSpace=wrap;html=1;fontFamily=宋体;fontSource=https%3A%2F%2Ffonts.googleapis.com%2Fcss%3Ffamily%3D%25E5%25AE%258B%25E4%25BD%2593;fontSize=14;" parent="1" vertex="1">
                    <mxGeometry x="220" y="520" width="30" height="100" as="geometry"/>
                </mxCell>
                <mxCell id="278" style="edgeStyle=none;html=1;entryX=0;entryY=0.5;entryDx=0;entryDy=0;" parent="1" source="199" target="268" edge="1">
                    <mxGeometry relative="1" as="geometry"/>
                </mxCell>
                <mxCell id="199" value="&lt;font style=&quot;font-size: 16px&quot;&gt;池化层&lt;br&gt;1&lt;/font&gt;" style="rounded=0;whiteSpace=wrap;html=1;fontFamily=宋体;fontSource=https%3A%2F%2Ffonts.googleapis.com%2Fcss%3Ffamily%3D%25E5%25AE%258B%25E4%25BD%2593;fontSize=14;" parent="1" vertex="1">
                    <mxGeometry x="270" y="520" width="30" height="100" as="geometry"/>
                </mxCell>
                <mxCell id="229" value="消费者取货与&lt;br&gt;商家补货的&lt;br&gt;人机交互界面" style="ellipse;whiteSpace=wrap;html=1;fontFamily=宋体;fontSource=https%3A%2F%2Ffonts.googleapis.com%2Fcss%3Ffamily%3D%25E5%25AE%258B%25E4%25BD%2593;fontSize=17;" parent="1" vertex="1">
                    <mxGeometry x="690" y="446.25" width="160" height="107.5" as="geometry"/>
                </mxCell>
                <mxCell id="231" value="图片切换&lt;br&gt;控制" style="ellipse;whiteSpace=wrap;html=1;fontFamily=宋体;fontSource=https%3A%2F%2Ffonts.googleapis.com%2Fcss%3Ffamily%3D%25E5%25AE%258B%25E4%25BD%2593;fontSize=17;" parent="1" vertex="1">
                    <mxGeometry x="720" y="360" width="100" height="60" as="geometry"/>
                </mxCell>
                <mxCell id="241" value="&lt;font style=&quot;font-size: 24px&quot; color=&quot;#1f80ff&quot;&gt;软核&lt;/font&gt;" style="text;html=1;align=center;verticalAlign=middle;resizable=0;points=[];autosize=1;strokeColor=none;fillColor=none;fontSize=16;fontFamily=宋体;fontColor=#3333FF;" parent="1" vertex="1">
                    <mxGeometry x="600" y="250" width="60" height="30" as="geometry"/>
                </mxCell>
                <mxCell id="242" value="&lt;font style=&quot;font-size: 24px&quot; color=&quot;#1f80ff&quot;&gt;硬件&lt;/font&gt;" style="text;html=1;align=center;verticalAlign=middle;resizable=0;points=[];autosize=1;strokeColor=none;fillColor=none;fontSize=16;fontFamily=宋体;fontColor=#3333FF;" parent="1" vertex="1">
                    <mxGeometry x="400" y="150" width="60" height="30" as="geometry"/>
                </mxCell>
                <mxCell id="291" style="edgeStyle=none;html=1;entryX=0.5;entryY=0;entryDx=0;entryDy=0;fontFamily=Times New Roman;fontSize=12;strokeWidth=4;fillColor=#f8cecc;strokeColor=#b85450;" parent="1" source="248" target="170" edge="1">
                    <mxGeometry relative="1" as="geometry">
                        <Array as="points">
                            <mxPoint x="300" y="170"/>
                            <mxPoint x="200" y="170"/>
                        </Array>
                    </mxGeometry>
                </mxCell>
                <mxCell id="294" style="edgeStyle=none;html=1;fontFamily=Times New Roman;fontSize=12;strokeWidth=4;fillColor=#f8cecc;strokeColor=#b85450;entryX=0.5;entryY=1;entryDx=0;entryDy=0;" parent="1" edge="1" target="197">
                    <mxGeometry relative="1" as="geometry">
                        <mxPoint x="199.75" y="680" as="targetPoint"/>
                        <mxPoint x="290" y="170" as="sourcePoint"/>
                        <Array as="points">
                            <mxPoint x="140" y="170"/>
                            <mxPoint x="140" y="650"/>
                            <mxPoint x="165" y="650"/>
                        </Array>
                    </mxGeometry>
                </mxCell>
                <mxCell id="319" style="edgeStyle=none;html=1;entryX=0;entryY=0.5;entryDx=0;entryDy=0;fontFamily=宋体;fontSource=https%3A%2F%2Ffonts.googleapis.com%2Fcss%3Ffamily%3D%25E5%25AE%258B%25E4%25BD%2593;strokeColor=#B85450;strokeWidth=4;" edge="1" parent="1" source="248" target="288">
                    <mxGeometry relative="1" as="geometry">
                        <Array as="points">
                            <mxPoint x="300" y="170"/>
                            <mxPoint x="140" y="170"/>
                            <mxPoint x="140" y="740"/>
                        </Array>
                    </mxGeometry>
                </mxCell>
                <mxCell id="248" value="" style="outlineConnect=0;dashed=0;verticalLabelPosition=bottom;verticalAlign=top;align=center;html=1;shape=mxgraph.aws3.camera;fillColor=#5294CF;gradientColor=none;fontFamily=宋体;fontSource=https%3A%2F%2Ffonts.googleapis.com%2Fcss%3Ffamily%3D%25E5%25AE%258B%25E4%25BD%2593;fontSize=17;fontColor=#1F80FF;strokeColor=#1F80FF;strokeWidth=2;" parent="1" vertex="1">
                    <mxGeometry x="260.5" y="60" width="79.5" height="79.5" as="geometry"/>
                </mxCell>
                <mxCell id="250" value="" style="fontColor=#0066CC;verticalAlign=top;verticalLabelPosition=bottom;labelPosition=center;align=center;html=1;outlineConnect=0;fillColor=#CCCCCC;strokeColor=#6881B3;gradientColor=none;gradientDirection=north;strokeWidth=2;shape=mxgraph.networks.video_projector_screen;fontFamily=宋体;fontSource=https%3A%2F%2Ffonts.googleapis.com%2Fcss%3Ffamily%3D%25E5%25AE%258B%25E4%25BD%2593;fontSize=17;" parent="1" vertex="1">
                    <mxGeometry x="260.5" y="827" width="80" height="100" as="geometry"/>
                </mxCell>
                <mxCell id="256" value="&lt;font style=&quot;font-size: 24px&quot; face=&quot;Times New Roman&quot;&gt;OV5640&lt;/font&gt;" style="text;html=1;align=center;verticalAlign=middle;resizable=0;points=[];autosize=1;strokeColor=none;fillColor=none;fontSize=16;fontFamily=宋体;fontColor=#3333FF;" parent="1" vertex="1">
                    <mxGeometry x="335" y="60" width="100" height="30" as="geometry"/>
                </mxCell>
                <mxCell id="257" value="&lt;font style=&quot;font-size: 24px&quot; face=&quot;Times New Roman&quot;&gt;HDMI&lt;/font&gt;&lt;font style=&quot;font-size: 24px&quot;&gt;屏&lt;/font&gt;" style="text;html=1;align=center;verticalAlign=middle;resizable=0;points=[];autosize=1;strokeColor=none;fillColor=none;fontSize=16;fontFamily=宋体;fontColor=#3333FF;" parent="1" vertex="1">
                    <mxGeometry x="340.5" y="812" width="100" height="30" as="geometry"/>
                </mxCell>
                <mxCell id="290" style="edgeStyle=none;html=1;entryX=0;entryY=0.5;entryDx=0;entryDy=0;fontFamily=Times New Roman;fontSize=12;" parent="1" source="259" target="260" edge="1">
                    <mxGeometry relative="1" as="geometry"/>
                </mxCell>
                <mxCell id="259" value="&lt;font face=&quot;宋体&quot;&gt;&lt;span style=&quot;font-size: 17px&quot;&gt;均值&lt;br&gt;滤波&lt;/span&gt;&lt;/font&gt;" style="rounded=0;whiteSpace=wrap;html=1;" parent="1" vertex="1">
                    <mxGeometry x="270" y="200" width="60" height="60" as="geometry"/>
                </mxCell>
                <mxCell id="273" value="" style="edgeStyle=none;html=1;entryX=0.5;entryY=0;entryDx=0;entryDy=0;" parent="1" source="260" target="172" edge="1">
                    <mxGeometry relative="1" as="geometry">
                        <Array as="points">
                            <mxPoint x="400" y="280"/>
                            <mxPoint x="300" y="280"/>
                        </Array>
                    </mxGeometry>
                </mxCell>
                <mxCell id="260" value="&lt;span style=&quot;font-size: 17px&quot;&gt;&lt;font face=&quot;宋体&quot; data-font-src=&quot;https://fonts.googleapis.com/css?family=%E5%AE%8B%E4%BD%93&quot;&gt;二值化&lt;br&gt;处理&lt;/font&gt;&lt;/span&gt;" style="rounded=0;whiteSpace=wrap;html=1;" parent="1" vertex="1">
                    <mxGeometry x="360" y="200" width="80" height="60" as="geometry"/>
                </mxCell>
                <mxCell id="315" style="edgeStyle=none;html=1;entryX=0.706;entryY=0.034;entryDx=0;entryDy=0;entryPerimeter=0;fontFamily=宋体;fontSource=https%3A%2F%2Ffonts.googleapis.com%2Fcss%3Ffamily%3D%25E5%25AE%258B%25E4%25BD%2593;" edge="1" parent="1" source="266" target="313">
                    <mxGeometry relative="1" as="geometry"/>
                </mxCell>
                <mxCell id="266" value="&lt;span style=&quot;font-size: 16px&quot;&gt;全连接层&lt;/span&gt;" style="rounded=0;whiteSpace=wrap;html=1;fontFamily=宋体;fontSource=https%3A%2F%2Ffonts.googleapis.com%2Fcss%3Ffamily%3D%25E5%25AE%258B%25E4%25BD%2593;fontSize=14;" parent="1" vertex="1">
                    <mxGeometry x="420" y="520" width="30" height="100" as="geometry"/>
                </mxCell>
                <mxCell id="280" style="edgeStyle=none;html=1;entryX=0;entryY=0.5;entryDx=0;entryDy=0;" parent="1" source="267" target="266" edge="1">
                    <mxGeometry relative="1" as="geometry"/>
                </mxCell>
                <mxCell id="267" value="&lt;font style=&quot;font-size: 16px&quot;&gt;池化层&lt;br&gt;2&lt;/font&gt;" style="rounded=0;whiteSpace=wrap;html=1;fontFamily=宋体;fontSource=https%3A%2F%2Ffonts.googleapis.com%2Fcss%3Ffamily%3D%25E5%25AE%258B%25E4%25BD%2593;fontSize=14;" parent="1" vertex="1">
                    <mxGeometry x="370" y="520" width="30" height="100" as="geometry"/>
                </mxCell>
                <mxCell id="279" style="edgeStyle=none;html=1;entryX=0;entryY=0.5;entryDx=0;entryDy=0;" parent="1" source="268" target="267" edge="1">
                    <mxGeometry relative="1" as="geometry"/>
                </mxCell>
                <mxCell id="268" value="&lt;font style=&quot;font-size: 16px&quot;&gt;卷积层&lt;br&gt;2&lt;/font&gt;" style="rounded=0;whiteSpace=wrap;html=1;fontFamily=宋体;fontSource=https%3A%2F%2Ffonts.googleapis.com%2Fcss%3Ffamily%3D%25E5%25AE%258B%25E4%25BD%2593;fontSize=14;" parent="1" vertex="1">
                    <mxGeometry x="320" y="520" width="30" height="100" as="geometry"/>
                </mxCell>
                <mxCell id="275" value="&lt;font style=&quot;font-size: 13px&quot;&gt;商品坐标 *1&lt;/font&gt;" style="edgeLabel;html=1;align=center;verticalAlign=middle;resizable=0;points=[];fontFamily=宋体;" parent="1" vertex="1" connectable="0">
                    <mxGeometry x="339.9994824828924" y="489.99988793797957" as="geometry"/>
                </mxCell>
                <mxCell id="282" value="&lt;font face=&quot;Times New Roman&quot; style=&quot;font-size: 12px&quot;&gt;32*32&lt;/font&gt;" style="text;html=1;align=center;verticalAlign=middle;resizable=0;points=[];autosize=1;strokeColor=none;fillColor=none;" parent="1" vertex="1">
                    <mxGeometry x="175" y="545" width="50" height="20" as="geometry"/>
                </mxCell>
                <mxCell id="283" value="" style="html=1;shadow=0;dashed=0;align=center;verticalAlign=middle;shape=mxgraph.arrows2.arrow;dy=0.62;dx=29.73;notch=0;fillColor=#3399FF;direction=east;" parent="1" vertex="1">
                    <mxGeometry x="460" y="650" width="50" height="30" as="geometry"/>
                </mxCell>
                <mxCell id="295" style="edgeStyle=none;html=1;entryX=0.5;entryY=0;entryDx=0;entryDy=0;entryPerimeter=0;fontFamily=Times New Roman;fontSize=12;fillColor=#f8cecc;strokeColor=#b85450;strokeWidth=4;" parent="1" source="288" target="250" edge="1">
                    <mxGeometry relative="1" as="geometry"/>
                </mxCell>
                <mxCell id="288" value="&lt;font face=&quot;宋体&quot;&gt;&lt;span style=&quot;font-size: 17px&quot;&gt;字符、图案、识别框&lt;br&gt;显示&lt;/span&gt;&lt;/font&gt;" style="rounded=0;whiteSpace=wrap;html=1;" parent="1" vertex="1">
                    <mxGeometry x="200" y="710" width="200" height="60" as="geometry"/>
                </mxCell>
                <mxCell id="297" value="&lt;span style=&quot;font-size: 13px&quot;&gt;原始&lt;font face=&quot;Times New Roman&quot; style=&quot;font-size: 13px&quot;&gt;RGB&lt;/font&gt;图像&lt;/span&gt;" style="edgeLabel;html=1;align=center;verticalAlign=middle;resizable=0;points=[];fontFamily=宋体;" parent="1" vertex="1" connectable="0">
                    <mxGeometry x="520" y="230" as="geometry">
                        <mxPoint x="-183" y="-63" as="offset"/>
                    </mxGeometry>
                </mxCell>
                <mxCell id="303" value="" style="html=1;shadow=0;dashed=0;align=center;verticalAlign=middle;shape=mxgraph.arrows2.arrow;dy=0.62;dx=29.73;notch=0;fillColor=#3399FF;direction=west;" parent="1" vertex="1">
                    <mxGeometry x="640" y="375" width="80" height="30" as="geometry"/>
                </mxCell>
                <mxCell id="305" value="" style="html=1;shadow=0;dashed=0;align=center;verticalAlign=middle;shape=mxgraph.arrows2.arrow;dy=0.62;dx=29.73;notch=0;fillColor=#3399FF;direction=west;" parent="1" vertex="1">
                    <mxGeometry x="640" y="485" width="50" height="30" as="geometry"/>
                </mxCell>
                <mxCell id="306" value="" style="html=1;shadow=0;dashed=0;align=center;verticalAlign=middle;shape=mxgraph.arrows2.arrow;dy=0.62;dx=29.73;notch=0;fillColor=#3399FF;direction=west;" parent="1" vertex="1">
                    <mxGeometry x="430" y="405" width="70" height="30" as="geometry"/>
                </mxCell>
                <mxCell id="307" value="&lt;font style=&quot;font-size: 13px&quot;&gt;图片切换指令&lt;/font&gt;" style="edgeLabel;html=1;align=center;verticalAlign=middle;resizable=0;points=[];fontFamily=宋体;" parent="1" vertex="1" connectable="0">
                    <mxGeometry x="390" y="449.99777777777786" as="geometry">
                        <mxPoint x="77" y="-52" as="offset"/>
                    </mxGeometry>
                </mxCell>
                <mxCell id="314" style="edgeStyle=none;html=1;fontFamily=宋体;fontSource=https%3A%2F%2Ffonts.googleapis.com%2Fcss%3Ffamily%3D%25E5%25AE%258B%25E4%25BD%2593;" edge="1" parent="1" source="311" target="313">
                    <mxGeometry relative="1" as="geometry"/>
                </mxCell>
                <mxCell id="311" value="&lt;span style=&quot;font-size: 16px&quot;&gt;色域判断&lt;/span&gt;" style="rounded=0;whiteSpace=wrap;html=1;fontFamily=宋体;fontSource=https%3A%2F%2Ffonts.googleapis.com%2Fcss%3Ffamily%3D%25E5%25AE%258B%25E4%25BD%2593;fontSize=14;" vertex="1" parent="1">
                    <mxGeometry x="230" y="640" width="90" height="50" as="geometry"/>
                </mxCell>
                <mxCell id="324" style="edgeStyle=none;html=1;entryX=1;entryY=0.5;entryDx=0;entryDy=0;fontFamily=宋体;fontSource=https%3A%2F%2Ffonts.googleapis.com%2Fcss%3Ffamily%3D%25E5%25AE%258B%25E4%25BD%2593;fontSize=13;strokeColor=#000000;strokeWidth=1;exitX=0.519;exitY=1;exitDx=0;exitDy=0;exitPerimeter=0;" edge="1" parent="1" source="140" target="288">
                    <mxGeometry relative="1" as="geometry">
                        <Array as="points">
                            <mxPoint x="573" y="740"/>
                            <mxPoint x="436" y="740"/>
                        </Array>
                    </mxGeometry>
                </mxCell>
                <mxCell id="313" value="&lt;span style=&quot;font-size: 16px&quot;&gt;&lt;font face=&quot;宋体&quot; data-font-src=&quot;https://fonts.googleapis.com/css?family=%E5%AE%8B%E4%BD%93&quot;&gt;数据融合&lt;/font&gt;&lt;/span&gt;" style="shape=hexagon;perimeter=hexagonPerimeter2;whiteSpace=wrap;html=1;fixedSize=1;" vertex="1" parent="1">
                    <mxGeometry x="350" y="640" width="120" height="50" as="geometry"/>
                </mxCell>
                <mxCell id="320" value="&lt;font style=&quot;font-size: 13px&quot;&gt;商品标签&lt;/font&gt;" style="edgeLabel;html=1;align=center;verticalAlign=middle;resizable=0;points=[];fontFamily=宋体;" vertex="1" connectable="0" parent="1">
                    <mxGeometry x="485" y="690" as="geometry">
                        <mxPoint x="-3" y="1" as="offset"/>
                    </mxGeometry>
                </mxCell>
            </root>
        </mxGraphModel>
    </diagram>
</mxfile>